<mxfile host="app.diagrams.net" modified="2022-01-24T18:54:07.150Z" agent="5.0 (Windows NT 10.0; Win64; x64) AppleWebKit/537.36 (KHTML, like Gecko) Chrome/97.0.4692.71 Safari/537.36" etag="htDPt7pUJwJ9WfO7i267" version="16.4.5" type="github">
  <diagram id="0tyykhrvI6lEo1EG7miZ" name="Page-1">
    <mxGraphModel dx="2782" dy="1045" grid="1" gridSize="10" guides="1" tooltips="1" connect="1" arrows="1" fold="1" page="1" pageScale="1" pageWidth="827" pageHeight="1169" background="#283618" math="0" shadow="0">
      <root>
        <mxCell id="0" />
        <mxCell id="1" parent="0" />
        <mxCell id="8nnCczleQrRYHcVaDCCx-13" value="" style="edgeStyle=orthogonalEdgeStyle;rounded=0;orthogonalLoop=1;jettySize=auto;html=1;endArrow=none;endFill=0;shape=link;labelBackgroundColor=#283618;strokeColor=#DDA15E;fontColor=#FEFAE0;" edge="1" parent="1" source="8nnCczleQrRYHcVaDCCx-1" target="8nnCczleQrRYHcVaDCCx-12">
          <mxGeometry relative="1" as="geometry" />
        </mxCell>
        <mxCell id="8nnCczleQrRYHcVaDCCx-128" value="" style="edgeStyle=none;rounded=0;orthogonalLoop=1;jettySize=auto;html=1;endArrow=none;endFill=0;labelBackgroundColor=#283618;strokeColor=#DDA15E;fontColor=#FEFAE0;" edge="1" parent="1" source="8nnCczleQrRYHcVaDCCx-1" target="8nnCczleQrRYHcVaDCCx-127">
          <mxGeometry relative="1" as="geometry" />
        </mxCell>
        <mxCell id="8nnCczleQrRYHcVaDCCx-130" value="" style="edgeStyle=none;rounded=0;orthogonalLoop=1;jettySize=auto;html=1;endArrow=none;endFill=0;labelBackgroundColor=#283618;strokeColor=#DDA15E;fontColor=#FEFAE0;" edge="1" parent="1" source="8nnCczleQrRYHcVaDCCx-1" target="8nnCczleQrRYHcVaDCCx-129">
          <mxGeometry relative="1" as="geometry" />
        </mxCell>
        <mxCell id="8nnCczleQrRYHcVaDCCx-1" value="Kategoria" style="rounded=0;whiteSpace=wrap;html=1;fillColor=#BC6C25;strokeColor=#DDA15E;fontColor=#FEFAE0;" vertex="1" parent="1">
          <mxGeometry x="330" y="130" width="120" height="60" as="geometry" />
        </mxCell>
        <mxCell id="8nnCczleQrRYHcVaDCCx-64" value="" style="edgeStyle=none;rounded=0;orthogonalLoop=1;jettySize=auto;html=1;endArrow=none;endFill=0;labelBackgroundColor=#283618;strokeColor=#DDA15E;fontColor=#FEFAE0;" edge="1" parent="1" source="8nnCczleQrRYHcVaDCCx-2" target="8nnCczleQrRYHcVaDCCx-63">
          <mxGeometry relative="1" as="geometry" />
        </mxCell>
        <mxCell id="8nnCczleQrRYHcVaDCCx-66" value="" style="edgeStyle=none;rounded=0;orthogonalLoop=1;jettySize=auto;html=1;endArrow=none;endFill=0;labelBackgroundColor=#283618;strokeColor=#DDA15E;fontColor=#FEFAE0;" edge="1" parent="1" source="8nnCczleQrRYHcVaDCCx-2" target="8nnCczleQrRYHcVaDCCx-65">
          <mxGeometry relative="1" as="geometry" />
        </mxCell>
        <mxCell id="8nnCczleQrRYHcVaDCCx-78" style="edgeStyle=none;shape=link;rounded=0;orthogonalLoop=1;jettySize=auto;html=1;exitX=1;exitY=0.5;exitDx=0;exitDy=0;entryX=0.5;entryY=1;entryDx=0;entryDy=0;endArrow=none;endFill=0;startArrow=none;labelBackgroundColor=#283618;strokeColor=#DDA15E;fontColor=#FEFAE0;" edge="1" parent="1" source="8nnCczleQrRYHcVaDCCx-79" target="8nnCczleQrRYHcVaDCCx-5">
          <mxGeometry relative="1" as="geometry" />
        </mxCell>
        <mxCell id="8nnCczleQrRYHcVaDCCx-122" value="" style="edgeStyle=none;rounded=0;orthogonalLoop=1;jettySize=auto;html=1;endArrow=none;endFill=0;labelBackgroundColor=#283618;strokeColor=#DDA15E;fontColor=#FEFAE0;" edge="1" parent="1" source="8nnCczleQrRYHcVaDCCx-2" target="8nnCczleQrRYHcVaDCCx-72">
          <mxGeometry relative="1" as="geometry" />
        </mxCell>
        <mxCell id="8nnCczleQrRYHcVaDCCx-2" value="Asiakas" style="rounded=0;whiteSpace=wrap;html=1;fillColor=#BC6C25;strokeColor=#DDA15E;fontColor=#FEFAE0;" vertex="1" parent="1">
          <mxGeometry x="-270" y="650" width="120" height="60" as="geometry" />
        </mxCell>
        <mxCell id="8nnCczleQrRYHcVaDCCx-109" value="" style="edgeStyle=none;rounded=0;orthogonalLoop=1;jettySize=auto;html=1;endArrow=none;endFill=0;labelBackgroundColor=#283618;strokeColor=#DDA15E;fontColor=#FEFAE0;" edge="1" parent="1" source="8nnCczleQrRYHcVaDCCx-3" target="8nnCczleQrRYHcVaDCCx-108">
          <mxGeometry relative="1" as="geometry" />
        </mxCell>
        <mxCell id="8nnCczleQrRYHcVaDCCx-111" value="" style="edgeStyle=none;rounded=0;orthogonalLoop=1;jettySize=auto;html=1;endArrow=none;endFill=0;labelBackgroundColor=#283618;strokeColor=#DDA15E;fontColor=#FEFAE0;" edge="1" parent="1" source="8nnCczleQrRYHcVaDCCx-3" target="8nnCczleQrRYHcVaDCCx-110">
          <mxGeometry relative="1" as="geometry" />
        </mxCell>
        <mxCell id="8nnCczleQrRYHcVaDCCx-113" value="" style="edgeStyle=none;rounded=0;orthogonalLoop=1;jettySize=auto;html=1;endArrow=none;endFill=0;labelBackgroundColor=#283618;strokeColor=#DDA15E;fontColor=#FEFAE0;" edge="1" parent="1" source="8nnCczleQrRYHcVaDCCx-3" target="8nnCczleQrRYHcVaDCCx-112">
          <mxGeometry relative="1" as="geometry" />
        </mxCell>
        <mxCell id="8nnCczleQrRYHcVaDCCx-115" value="" style="edgeStyle=none;rounded=0;orthogonalLoop=1;jettySize=auto;html=1;endArrow=none;endFill=0;labelBackgroundColor=#283618;strokeColor=#DDA15E;fontColor=#FEFAE0;" edge="1" parent="1" source="8nnCczleQrRYHcVaDCCx-3" target="8nnCczleQrRYHcVaDCCx-114">
          <mxGeometry relative="1" as="geometry" />
        </mxCell>
        <mxCell id="8nnCczleQrRYHcVaDCCx-117" value="" style="edgeStyle=none;rounded=0;orthogonalLoop=1;jettySize=auto;html=1;endArrow=none;endFill=0;labelBackgroundColor=#283618;strokeColor=#DDA15E;fontColor=#FEFAE0;" edge="1" parent="1" source="8nnCczleQrRYHcVaDCCx-3" target="8nnCczleQrRYHcVaDCCx-116">
          <mxGeometry relative="1" as="geometry" />
        </mxCell>
        <mxCell id="8nnCczleQrRYHcVaDCCx-3" value="HenkilÃ¶asiakas" style="rounded=0;whiteSpace=wrap;html=1;fillColor=#BC6C25;strokeColor=#DDA15E;fontColor=#FEFAE0;" vertex="1" parent="1">
          <mxGeometry x="-370" y="860" width="120" height="60" as="geometry" />
        </mxCell>
        <mxCell id="8nnCczleQrRYHcVaDCCx-105" value="" style="edgeStyle=none;rounded=0;orthogonalLoop=1;jettySize=auto;html=1;endArrow=none;endFill=0;labelBackgroundColor=#283618;strokeColor=#DDA15E;fontColor=#FEFAE0;" edge="1" parent="1" source="8nnCczleQrRYHcVaDCCx-4" target="8nnCczleQrRYHcVaDCCx-104">
          <mxGeometry relative="1" as="geometry" />
        </mxCell>
        <mxCell id="8nnCczleQrRYHcVaDCCx-107" value="" style="edgeStyle=none;rounded=0;orthogonalLoop=1;jettySize=auto;html=1;endArrow=none;endFill=0;labelBackgroundColor=#283618;strokeColor=#DDA15E;fontColor=#FEFAE0;" edge="1" parent="1" source="8nnCczleQrRYHcVaDCCx-4" target="8nnCczleQrRYHcVaDCCx-106">
          <mxGeometry relative="1" as="geometry" />
        </mxCell>
        <mxCell id="8nnCczleQrRYHcVaDCCx-4" value="Yritys" style="rounded=0;whiteSpace=wrap;html=1;fillColor=#BC6C25;strokeColor=#DDA15E;fontColor=#FEFAE0;" vertex="1" parent="1">
          <mxGeometry x="-190" y="860" width="120" height="60" as="geometry" />
        </mxCell>
        <mxCell id="8nnCczleQrRYHcVaDCCx-85" value="" style="edgeStyle=none;shape=link;rounded=0;orthogonalLoop=1;jettySize=auto;html=1;endArrow=none;endFill=0;labelBackgroundColor=#283618;strokeColor=#DDA15E;fontColor=#FEFAE0;" edge="1" parent="1" source="8nnCczleQrRYHcVaDCCx-5" target="8nnCczleQrRYHcVaDCCx-84">
          <mxGeometry relative="1" as="geometry" />
        </mxCell>
        <mxCell id="8nnCczleQrRYHcVaDCCx-87" value="" style="edgeStyle=none;shape=link;rounded=0;orthogonalLoop=1;jettySize=auto;html=1;endArrow=none;endFill=0;labelBackgroundColor=#283618;strokeColor=#DDA15E;fontColor=#FEFAE0;" edge="1" parent="1" source="8nnCczleQrRYHcVaDCCx-5" target="8nnCczleQrRYHcVaDCCx-86">
          <mxGeometry relative="1" as="geometry" />
        </mxCell>
        <mxCell id="8nnCczleQrRYHcVaDCCx-89" value="" style="edgeStyle=none;shape=link;rounded=0;orthogonalLoop=1;jettySize=auto;html=1;endArrow=none;endFill=0;labelBackgroundColor=#283618;strokeColor=#DDA15E;fontColor=#FEFAE0;" edge="1" parent="1" source="8nnCczleQrRYHcVaDCCx-5" target="8nnCczleQrRYHcVaDCCx-88">
          <mxGeometry relative="1" as="geometry" />
        </mxCell>
        <mxCell id="8nnCczleQrRYHcVaDCCx-124" value="" style="edgeStyle=none;shape=link;rounded=0;orthogonalLoop=1;jettySize=auto;html=1;endArrow=none;endFill=0;labelBackgroundColor=#283618;strokeColor=#DDA15E;fontColor=#FEFAE0;" edge="1" parent="1" source="8nnCczleQrRYHcVaDCCx-5" target="8nnCczleQrRYHcVaDCCx-123">
          <mxGeometry relative="1" as="geometry" />
        </mxCell>
        <mxCell id="8nnCczleQrRYHcVaDCCx-126" value="" style="edgeStyle=none;shape=link;rounded=0;orthogonalLoop=1;jettySize=auto;html=1;endArrow=none;endFill=0;labelBackgroundColor=#283618;strokeColor=#DDA15E;fontColor=#FEFAE0;" edge="1" parent="1" source="8nnCczleQrRYHcVaDCCx-5" target="8nnCczleQrRYHcVaDCCx-125">
          <mxGeometry relative="1" as="geometry" />
        </mxCell>
        <mxCell id="8nnCczleQrRYHcVaDCCx-5" value="Tilaus" style="rounded=0;whiteSpace=wrap;html=1;fillColor=#BC6C25;strokeColor=#DDA15E;fontColor=#FEFAE0;" vertex="1" parent="1">
          <mxGeometry x="-270" y="390" width="120" height="60" as="geometry" />
        </mxCell>
        <mxCell id="8nnCczleQrRYHcVaDCCx-43" style="edgeStyle=none;rounded=0;orthogonalLoop=1;jettySize=auto;html=1;exitX=0.5;exitY=1;exitDx=0;exitDy=0;entryX=0;entryY=1;entryDx=0;entryDy=0;endArrow=none;endFill=0;startArrow=none;labelBackgroundColor=#283618;strokeColor=#DDA15E;fontColor=#FEFAE0;" edge="1" parent="1" source="8nnCczleQrRYHcVaDCCx-47" target="8nnCczleQrRYHcVaDCCx-1">
          <mxGeometry relative="1" as="geometry" />
        </mxCell>
        <mxCell id="8nnCczleQrRYHcVaDCCx-50" value="" style="edgeStyle=none;rounded=0;orthogonalLoop=1;jettySize=auto;html=1;endArrow=none;endFill=0;labelBackgroundColor=#283618;strokeColor=#DDA15E;fontColor=#FEFAE0;" edge="1" parent="1" source="8nnCczleQrRYHcVaDCCx-6" target="8nnCczleQrRYHcVaDCCx-49">
          <mxGeometry relative="1" as="geometry" />
        </mxCell>
        <mxCell id="8nnCczleQrRYHcVaDCCx-52" value="" style="edgeStyle=none;rounded=0;orthogonalLoop=1;jettySize=auto;html=1;endArrow=none;endFill=0;labelBackgroundColor=#283618;strokeColor=#DDA15E;fontColor=#FEFAE0;" edge="1" parent="1" source="8nnCczleQrRYHcVaDCCx-6" target="8nnCczleQrRYHcVaDCCx-51">
          <mxGeometry relative="1" as="geometry" />
        </mxCell>
        <mxCell id="8nnCczleQrRYHcVaDCCx-81" style="edgeStyle=none;rounded=0;orthogonalLoop=1;jettySize=auto;html=1;exitX=0;exitY=0.5;exitDx=0;exitDy=0;entryX=0.5;entryY=0;entryDx=0;entryDy=0;endArrow=none;endFill=0;shape=link;labelBackgroundColor=#283618;strokeColor=#DDA15E;fontColor=#FEFAE0;" edge="1" parent="1" source="8nnCczleQrRYHcVaDCCx-82" target="8nnCczleQrRYHcVaDCCx-5">
          <mxGeometry relative="1" as="geometry" />
        </mxCell>
        <mxCell id="8nnCczleQrRYHcVaDCCx-6" value="Tuote" style="rounded=0;whiteSpace=wrap;html=1;fillColor=#BC6C25;strokeColor=#DDA15E;fontColor=#FEFAE0;" vertex="1" parent="1">
          <mxGeometry x="-270" y="220" width="120" height="60" as="geometry" />
        </mxCell>
        <mxCell id="8nnCczleQrRYHcVaDCCx-95" value="" style="edgeStyle=none;rounded=0;orthogonalLoop=1;jettySize=auto;html=1;endArrow=none;endFill=0;labelBackgroundColor=#283618;strokeColor=#DDA15E;fontColor=#FEFAE0;" edge="1" parent="1" source="8nnCczleQrRYHcVaDCCx-7" target="8nnCczleQrRYHcVaDCCx-94">
          <mxGeometry relative="1" as="geometry" />
        </mxCell>
        <mxCell id="8nnCczleQrRYHcVaDCCx-97" value="" style="edgeStyle=none;rounded=0;orthogonalLoop=1;jettySize=auto;html=1;endArrow=none;endFill=0;labelBackgroundColor=#283618;strokeColor=#DDA15E;fontColor=#FEFAE0;" edge="1" parent="1" source="8nnCczleQrRYHcVaDCCx-7" target="8nnCczleQrRYHcVaDCCx-96">
          <mxGeometry relative="1" as="geometry" />
        </mxCell>
        <mxCell id="8nnCczleQrRYHcVaDCCx-99" value="" style="edgeStyle=none;rounded=0;orthogonalLoop=1;jettySize=auto;html=1;endArrow=none;endFill=0;labelBackgroundColor=#283618;strokeColor=#DDA15E;fontColor=#FEFAE0;" edge="1" parent="1" source="8nnCczleQrRYHcVaDCCx-7" target="8nnCczleQrRYHcVaDCCx-98">
          <mxGeometry relative="1" as="geometry" />
        </mxCell>
        <mxCell id="8nnCczleQrRYHcVaDCCx-101" value="" style="edgeStyle=none;rounded=0;orthogonalLoop=1;jettySize=auto;html=1;endArrow=none;endFill=0;labelBackgroundColor=#283618;strokeColor=#DDA15E;fontColor=#FEFAE0;" edge="1" parent="1" source="8nnCczleQrRYHcVaDCCx-7" target="8nnCczleQrRYHcVaDCCx-100">
          <mxGeometry relative="1" as="geometry" />
        </mxCell>
        <mxCell id="8nnCczleQrRYHcVaDCCx-7" value="Kodinkone" style="rounded=0;whiteSpace=wrap;html=1;fillColor=#BC6C25;strokeColor=#DDA15E;fontColor=#FEFAE0;" vertex="1" parent="1">
          <mxGeometry x="510" y="402.5" width="120" height="60" as="geometry" />
        </mxCell>
        <mxCell id="8nnCczleQrRYHcVaDCCx-91" value="" style="edgeStyle=none;rounded=0;orthogonalLoop=1;jettySize=auto;html=1;endArrow=none;endFill=0;labelBackgroundColor=#283618;strokeColor=#DDA15E;fontColor=#FEFAE0;" edge="1" parent="1" source="8nnCczleQrRYHcVaDCCx-8" target="8nnCczleQrRYHcVaDCCx-90">
          <mxGeometry relative="1" as="geometry" />
        </mxCell>
        <mxCell id="8nnCczleQrRYHcVaDCCx-93" value="" style="edgeStyle=none;rounded=0;orthogonalLoop=1;jettySize=auto;html=1;endArrow=none;endFill=0;labelBackgroundColor=#283618;strokeColor=#DDA15E;fontColor=#FEFAE0;" edge="1" parent="1" source="8nnCczleQrRYHcVaDCCx-8" target="8nnCczleQrRYHcVaDCCx-92">
          <mxGeometry relative="1" as="geometry" />
        </mxCell>
        <mxCell id="8nnCczleQrRYHcVaDCCx-103" value="" style="edgeStyle=none;rounded=0;orthogonalLoop=1;jettySize=auto;html=1;endArrow=none;endFill=0;labelBackgroundColor=#283618;strokeColor=#DDA15E;fontColor=#FEFAE0;" edge="1" parent="1" source="8nnCczleQrRYHcVaDCCx-8" target="8nnCczleQrRYHcVaDCCx-102">
          <mxGeometry relative="1" as="geometry" />
        </mxCell>
        <mxCell id="8nnCczleQrRYHcVaDCCx-8" value="Elektroniikka" style="rounded=0;whiteSpace=wrap;html=1;fillColor=#BC6C25;strokeColor=#DDA15E;fontColor=#FEFAE0;" vertex="1" parent="1">
          <mxGeometry x="365" y="472.5" width="120" height="60" as="geometry" />
        </mxCell>
        <mxCell id="8nnCczleQrRYHcVaDCCx-9" value="Tarvike" style="rounded=0;whiteSpace=wrap;html=1;fillColor=#BC6C25;strokeColor=#DDA15E;fontColor=#FEFAE0;" vertex="1" parent="1">
          <mxGeometry x="160" y="542.44" width="120" height="60" as="geometry" />
        </mxCell>
        <mxCell id="8nnCczleQrRYHcVaDCCx-15" style="rounded=0;orthogonalLoop=1;jettySize=auto;html=1;exitX=0.5;exitY=0;exitDx=0;exitDy=0;entryX=1;entryY=1;entryDx=0;entryDy=0;endArrow=halfCircle;endFill=0;labelBackgroundColor=#283618;strokeColor=#DDA15E;fontColor=#FEFAE0;shape=link;" edge="1" parent="1" source="8nnCczleQrRYHcVaDCCx-7" target="8nnCczleQrRYHcVaDCCx-12">
          <mxGeometry relative="1" as="geometry" />
        </mxCell>
        <mxCell id="8nnCczleQrRYHcVaDCCx-12" value="O" style="ellipse;whiteSpace=wrap;html=1;aspect=fixed;rotation=-30;fillColor=#BC6C25;strokeColor=#DDA15E;fontColor=#FEFAE0;" vertex="1" parent="1">
          <mxGeometry x="365" y="342.5" width="50" height="50" as="geometry" />
        </mxCell>
        <mxCell id="8nnCczleQrRYHcVaDCCx-16" style="rounded=0;orthogonalLoop=1;jettySize=auto;html=1;exitX=0.5;exitY=0;exitDx=0;exitDy=0;endArrow=halfCircle;endFill=0;entryX=0.5;entryY=1;entryDx=0;entryDy=0;labelBackgroundColor=#283618;strokeColor=#DDA15E;fontColor=#FEFAE0;shape=link;" edge="1" parent="1" source="8nnCczleQrRYHcVaDCCx-8" target="8nnCczleQrRYHcVaDCCx-12">
          <mxGeometry relative="1" as="geometry">
            <mxPoint x="480" y="482.5" as="sourcePoint" />
            <mxPoint x="400" y="400" as="targetPoint" />
          </mxGeometry>
        </mxCell>
        <mxCell id="8nnCczleQrRYHcVaDCCx-18" value="" style="edgeStyle=orthogonalEdgeStyle;rounded=0;orthogonalLoop=1;jettySize=auto;html=1;endArrow=none;endFill=0;shape=link;entryX=0.5;entryY=1;entryDx=0;entryDy=0;exitX=0.5;exitY=1;exitDx=0;exitDy=0;labelBackgroundColor=#283618;strokeColor=#DDA15E;fontColor=#FEFAE0;" edge="1" parent="1" source="8nnCczleQrRYHcVaDCCx-17" target="8nnCczleQrRYHcVaDCCx-9">
          <mxGeometry relative="1" as="geometry">
            <Array as="points">
              <mxPoint x="100" y="622.44" />
              <mxPoint x="220" y="622.44" />
            </Array>
          </mxGeometry>
        </mxCell>
        <mxCell id="8nnCczleQrRYHcVaDCCx-33" value="Yhteensopivuus" style="edgeLabel;html=1;align=center;verticalAlign=middle;resizable=0;points=[];labelBackgroundColor=#283618;fontColor=#FEFAE0;" vertex="1" connectable="0" parent="8nnCczleQrRYHcVaDCCx-18">
          <mxGeometry x="-0.5451" y="2" relative="1" as="geometry">
            <mxPoint as="offset" />
          </mxGeometry>
        </mxCell>
        <mxCell id="8nnCczleQrRYHcVaDCCx-30" style="edgeStyle=orthogonalEdgeStyle;shape=link;rounded=0;orthogonalLoop=1;jettySize=auto;html=1;exitX=0.5;exitY=0;exitDx=0;exitDy=0;entryX=1;entryY=0.5;entryDx=0;entryDy=0;endArrow=none;endFill=0;labelBackgroundColor=#283618;strokeColor=#DDA15E;fontColor=#FEFAE0;" edge="1" parent="1" source="8nnCczleQrRYHcVaDCCx-17" target="8nnCczleQrRYHcVaDCCx-9">
          <mxGeometry relative="1" as="geometry" />
        </mxCell>
        <mxCell id="8nnCczleQrRYHcVaDCCx-32" value="" style="edgeStyle=orthogonalEdgeStyle;rounded=0;orthogonalLoop=1;jettySize=auto;html=1;endArrow=none;endFill=0;labelBackgroundColor=#283618;strokeColor=#DDA15E;fontColor=#FEFAE0;" edge="1" parent="1" source="8nnCczleQrRYHcVaDCCx-17" target="8nnCczleQrRYHcVaDCCx-31">
          <mxGeometry relative="1" as="geometry" />
        </mxCell>
        <mxCell id="8nnCczleQrRYHcVaDCCx-17" value="" style="rhombus;whiteSpace=wrap;html=1;fillColor=#BC6C25;strokeColor=#DDA15E;fontColor=#FEFAE0;" vertex="1" parent="1">
          <mxGeometry x="80" y="469.94" width="40" height="40" as="geometry" />
        </mxCell>
        <mxCell id="8nnCczleQrRYHcVaDCCx-31" value="&lt;u&gt;tatun&lt;/u&gt;" style="ellipse;whiteSpace=wrap;html=1;fillColor=#BC6C25;strokeColor=#DDA15E;fontColor=#FEFAE0;" vertex="1" parent="1">
          <mxGeometry x="160" y="474.94" width="70" height="30" as="geometry" />
        </mxCell>
        <mxCell id="8nnCczleQrRYHcVaDCCx-47" value="" style="rhombus;whiteSpace=wrap;html=1;rotation=-90;fillColor=#BC6C25;strokeColor=#DDA15E;fontColor=#FEFAE0;" vertex="1" parent="1">
          <mxGeometry x="-10" y="230" width="40" height="40" as="geometry" />
        </mxCell>
        <mxCell id="8nnCczleQrRYHcVaDCCx-48" value="" style="edgeStyle=none;rounded=0;orthogonalLoop=1;jettySize=auto;html=1;exitX=1;exitY=0.5;exitDx=0;exitDy=0;endArrow=none;endFill=0;entryX=0.5;entryY=0;entryDx=0;entryDy=0;shape=link;labelBackgroundColor=#283618;strokeColor=#DDA15E;fontColor=#FEFAE0;" edge="1" parent="1" source="8nnCczleQrRYHcVaDCCx-6" target="8nnCczleQrRYHcVaDCCx-47">
          <mxGeometry relative="1" as="geometry">
            <mxPoint x="620" y="220" as="sourcePoint" />
            <mxPoint x="-7.320508075688849" y="280" as="targetPoint" />
          </mxGeometry>
        </mxCell>
        <mxCell id="8nnCczleQrRYHcVaDCCx-49" value="&lt;u&gt;tutun&lt;/u&gt;" style="ellipse;whiteSpace=wrap;html=1;rounded=0;fillColor=#BC6C25;strokeColor=#DDA15E;fontColor=#FEFAE0;" vertex="1" parent="1">
          <mxGeometry x="-190" y="60" width="120" height="60" as="geometry" />
        </mxCell>
        <mxCell id="8nnCczleQrRYHcVaDCCx-51" value="tnimi" style="ellipse;whiteSpace=wrap;html=1;rounded=0;fillColor=#BC6C25;strokeColor=#DDA15E;fontColor=#FEFAE0;" vertex="1" parent="1">
          <mxGeometry x="-330" y="80" width="120" height="60" as="geometry" />
        </mxCell>
        <mxCell id="8nnCczleQrRYHcVaDCCx-63" value="&lt;u&gt;atun&lt;/u&gt;" style="ellipse;whiteSpace=wrap;html=1;rounded=0;fillColor=#BC6C25;strokeColor=#DDA15E;fontColor=#FEFAE0;" vertex="1" parent="1">
          <mxGeometry x="-70" y="650" width="120" height="60" as="geometry" />
        </mxCell>
        <mxCell id="8nnCczleQrRYHcVaDCCx-65" value="akayttajanimi" style="ellipse;whiteSpace=wrap;html=1;rounded=0;fillColor=#BC6C25;strokeColor=#DDA15E;fontColor=#FEFAE0;" vertex="1" parent="1">
          <mxGeometry x="-100" y="560" width="120" height="60" as="geometry" />
        </mxCell>
        <mxCell id="8nnCczleQrRYHcVaDCCx-70" value="" style="edgeStyle=orthogonalEdgeStyle;rounded=0;orthogonalLoop=1;jettySize=auto;html=1;endArrow=none;endFill=0;shape=link;labelBackgroundColor=#283618;strokeColor=#DDA15E;fontColor=#FEFAE0;" edge="1" parent="1" target="8nnCczleQrRYHcVaDCCx-72">
          <mxGeometry relative="1" as="geometry">
            <mxPoint x="-210" y="710" as="sourcePoint" />
          </mxGeometry>
        </mxCell>
        <mxCell id="8nnCczleQrRYHcVaDCCx-71" style="rounded=0;orthogonalLoop=1;jettySize=auto;html=1;exitX=0.5;exitY=0;exitDx=0;exitDy=0;entryX=1;entryY=1;entryDx=0;entryDy=0;endArrow=halfCircle;endFill=0;shape=link;labelBackgroundColor=#283618;strokeColor=#DDA15E;fontColor=#FEFAE0;" edge="1" parent="1" target="8nnCczleQrRYHcVaDCCx-72" source="8nnCczleQrRYHcVaDCCx-4">
          <mxGeometry relative="1" as="geometry">
            <mxPoint x="270" y="450" as="sourcePoint" />
          </mxGeometry>
        </mxCell>
        <mxCell id="8nnCczleQrRYHcVaDCCx-72" value="d" style="ellipse;whiteSpace=wrap;html=1;aspect=fixed;fillColor=#BC6C25;strokeColor=#DDA15E;fontColor=#FEFAE0;" vertex="1" parent="1">
          <mxGeometry x="-235" y="770" width="50" height="50" as="geometry" />
        </mxCell>
        <mxCell id="8nnCczleQrRYHcVaDCCx-73" style="rounded=0;orthogonalLoop=1;jettySize=auto;html=1;exitX=0.75;exitY=0;exitDx=0;exitDy=0;entryX=0;entryY=1;entryDx=0;entryDy=0;endArrow=halfCircle;endFill=0;shape=link;labelBackgroundColor=#283618;strokeColor=#DDA15E;fontColor=#FEFAE0;" edge="1" parent="1" target="8nnCczleQrRYHcVaDCCx-72" source="8nnCczleQrRYHcVaDCCx-3">
          <mxGeometry relative="1" as="geometry">
            <mxPoint x="110" y="450" as="sourcePoint" />
            <mxPoint x="217.6776695296635" y="372.6776695296635" as="targetPoint" />
          </mxGeometry>
        </mxCell>
        <mxCell id="8nnCczleQrRYHcVaDCCx-79" value="" style="rhombus;whiteSpace=wrap;html=1;rotation=-90;fillColor=#BC6C25;strokeColor=#DDA15E;fontColor=#FEFAE0;" vertex="1" parent="1">
          <mxGeometry x="-230" y="520" width="40" height="40" as="geometry" />
        </mxCell>
        <mxCell id="8nnCczleQrRYHcVaDCCx-80" value="" style="edgeStyle=none;rounded=0;orthogonalLoop=1;jettySize=auto;html=1;exitX=0.5;exitY=0;exitDx=0;exitDy=0;endArrow=none;endFill=0;labelBackgroundColor=#283618;strokeColor=#DDA15E;fontColor=#FEFAE0;" edge="1" parent="1" source="8nnCczleQrRYHcVaDCCx-2">
          <mxGeometry relative="1" as="geometry">
            <mxPoint x="-210" y="650" as="sourcePoint" />
            <mxPoint x="-210" y="550" as="targetPoint" />
          </mxGeometry>
        </mxCell>
        <mxCell id="8nnCczleQrRYHcVaDCCx-83" style="edgeStyle=none;rounded=0;orthogonalLoop=1;jettySize=auto;html=1;exitX=1;exitY=0.5;exitDx=0;exitDy=0;entryX=0.5;entryY=1;entryDx=0;entryDy=0;endArrow=none;endFill=0;labelBackgroundColor=#283618;strokeColor=#DDA15E;fontColor=#FEFAE0;" edge="1" parent="1" source="8nnCczleQrRYHcVaDCCx-82" target="8nnCczleQrRYHcVaDCCx-6">
          <mxGeometry relative="1" as="geometry" />
        </mxCell>
        <mxCell id="8nnCczleQrRYHcVaDCCx-82" value="" style="rhombus;whiteSpace=wrap;html=1;rotation=-90;fillColor=#BC6C25;strokeColor=#DDA15E;fontColor=#FEFAE0;" vertex="1" parent="1">
          <mxGeometry x="-230" y="310" width="40" height="40" as="geometry" />
        </mxCell>
        <mxCell id="8nnCczleQrRYHcVaDCCx-84" value="&lt;u&gt;ttun&lt;/u&gt;" style="ellipse;whiteSpace=wrap;html=1;rounded=0;fillColor=#BC6C25;strokeColor=#DDA15E;fontColor=#FEFAE0;" vertex="1" parent="1">
          <mxGeometry x="-110" y="305" width="90" height="25" as="geometry" />
        </mxCell>
        <mxCell id="8nnCczleQrRYHcVaDCCx-86" value="tpvm" style="ellipse;whiteSpace=wrap;html=1;rounded=0;fillColor=#BC6C25;strokeColor=#DDA15E;fontColor=#FEFAE0;" vertex="1" parent="1">
          <mxGeometry x="-50" y="340" width="80" height="20" as="geometry" />
        </mxCell>
        <mxCell id="8nnCczleQrRYHcVaDCCx-88" value="toimtun" style="ellipse;whiteSpace=wrap;html=1;rounded=0;fillColor=#BC6C25;strokeColor=#DDA15E;fontColor=#FEFAE0;" vertex="1" parent="1">
          <mxGeometry x="-70" y="390" width="90" height="30" as="geometry" />
        </mxCell>
        <mxCell id="8nnCczleQrRYHcVaDCCx-90" value="ekuvaus" style="ellipse;whiteSpace=wrap;html=1;rounded=0;fillColor=#BC6C25;strokeColor=#DDA15E;fontColor=#FEFAE0;" vertex="1" parent="1">
          <mxGeometry x="365" y="612.5" width="100" height="30" as="geometry" />
        </mxCell>
        <mxCell id="8nnCczleQrRYHcVaDCCx-92" value="etakuu" style="ellipse;whiteSpace=wrap;html=1;rounded=0;fillColor=#BC6C25;strokeColor=#DDA15E;fontColor=#FEFAE0;" vertex="1" parent="1">
          <mxGeometry x="435" y="587.5" width="100" height="30" as="geometry" />
        </mxCell>
        <mxCell id="8nnCczleQrRYHcVaDCCx-94" value="ktyyppi" style="ellipse;whiteSpace=wrap;html=1;rounded=0;fillColor=#BC6C25;strokeColor=#DDA15E;fontColor=#FEFAE0;" vertex="1" parent="1">
          <mxGeometry x="710" y="402.5" width="80" height="40" as="geometry" />
        </mxCell>
        <mxCell id="8nnCczleQrRYHcVaDCCx-96" value="kkuvaus" style="ellipse;whiteSpace=wrap;html=1;rounded=0;fillColor=#BC6C25;strokeColor=#DDA15E;fontColor=#FEFAE0;" vertex="1" parent="1">
          <mxGeometry x="700" y="472.5" width="80" height="30" as="geometry" />
        </mxCell>
        <mxCell id="8nnCczleQrRYHcVaDCCx-98" value="ktakuu" style="ellipse;whiteSpace=wrap;html=1;rounded=0;fillColor=#BC6C25;strokeColor=#DDA15E;fontColor=#FEFAE0;" vertex="1" parent="1">
          <mxGeometry x="710" y="332.5" width="90" height="40" as="geometry" />
        </mxCell>
        <mxCell id="8nnCczleQrRYHcVaDCCx-100" value="&lt;u&gt;kotun&lt;/u&gt;" style="ellipse;whiteSpace=wrap;html=1;rounded=0;fillColor=#BC6C25;strokeColor=#DDA15E;fontColor=#FEFAE0;" vertex="1" parent="1">
          <mxGeometry x="700" y="250" width="80" height="32.5" as="geometry" />
        </mxCell>
        <mxCell id="8nnCczleQrRYHcVaDCCx-102" value="&lt;u&gt;etun&lt;/u&gt;" style="ellipse;whiteSpace=wrap;html=1;rounded=0;fillColor=#BC6C25;strokeColor=#DDA15E;fontColor=#FEFAE0;" vertex="1" parent="1">
          <mxGeometry x="510" y="482.5" width="90" height="30" as="geometry" />
        </mxCell>
        <mxCell id="8nnCczleQrRYHcVaDCCx-104" value="&lt;u&gt;ytun&lt;/u&gt;" style="ellipse;whiteSpace=wrap;html=1;rounded=0;fillColor=#BC6C25;strokeColor=#DDA15E;fontColor=#FEFAE0;" vertex="1" parent="1">
          <mxGeometry x="10" y="860" width="120" height="60" as="geometry" />
        </mxCell>
        <mxCell id="8nnCczleQrRYHcVaDCCx-106" value="ytoimiala" style="ellipse;whiteSpace=wrap;html=1;rounded=0;fillColor=#BC6C25;strokeColor=#DDA15E;fontColor=#FEFAE0;" vertex="1" parent="1">
          <mxGeometry y="950" width="120" height="60" as="geometry" />
        </mxCell>
        <mxCell id="8nnCczleQrRYHcVaDCCx-108" value="&lt;u&gt;hatun&lt;/u&gt;" style="ellipse;whiteSpace=wrap;html=1;rounded=0;fillColor=#BC6C25;strokeColor=#DDA15E;fontColor=#FEFAE0;" vertex="1" parent="1">
          <mxGeometry x="-450" y="760" width="90" height="30" as="geometry" />
        </mxCell>
        <mxCell id="8nnCczleQrRYHcVaDCCx-110" value="haosoite" style="ellipse;whiteSpace=wrap;html=1;rounded=0;fillColor=#BC6C25;strokeColor=#DDA15E;fontColor=#FEFAE0;" vertex="1" parent="1">
          <mxGeometry x="-563" y="870" width="90" height="40" as="geometry" />
        </mxCell>
        <mxCell id="8nnCczleQrRYHcVaDCCx-112" value="hapostinumero" style="ellipse;whiteSpace=wrap;html=1;rounded=0;fillColor=#BC6C25;strokeColor=#DDA15E;fontColor=#FEFAE0;" vertex="1" parent="1">
          <mxGeometry x="-633" y="900" width="80" height="30" as="geometry" />
        </mxCell>
        <mxCell id="8nnCczleQrRYHcVaDCCx-114" value="hakaupunki" style="ellipse;whiteSpace=wrap;html=1;rounded=0;fillColor=#BC6C25;strokeColor=#DDA15E;fontColor=#FEFAE0;" vertex="1" parent="1">
          <mxGeometry x="-613" y="950" width="90" height="40" as="geometry" />
        </mxCell>
        <mxCell id="8nnCczleQrRYHcVaDCCx-116" value="hanimi" style="ellipse;whiteSpace=wrap;html=1;rounded=0;fillColor=#BC6C25;strokeColor=#DDA15E;fontColor=#FEFAE0;" vertex="1" parent="1">
          <mxGeometry x="-503" y="780" width="90" height="40" as="geometry" />
        </mxCell>
        <mxCell id="8nnCczleQrRYHcVaDCCx-120" style="edgeStyle=none;rounded=0;orthogonalLoop=1;jettySize=auto;html=1;exitX=1;exitY=0;exitDx=0;exitDy=0;entryX=0.25;entryY=1;entryDx=0;entryDy=0;endArrow=none;endFill=0;labelBackgroundColor=#283618;strokeColor=#DDA15E;fontColor=#FEFAE0;" edge="1" parent="1" source="8nnCczleQrRYHcVaDCCx-118" target="8nnCczleQrRYHcVaDCCx-3">
          <mxGeometry relative="1" as="geometry" />
        </mxCell>
        <mxCell id="8nnCczleQrRYHcVaDCCx-118" value="hamaa" style="ellipse;whiteSpace=wrap;html=1;fillColor=#BC6C25;strokeColor=#DDA15E;fontColor=#FEFAE0;" vertex="1" parent="1">
          <mxGeometry x="-533" y="1010" width="100" height="20" as="geometry" />
        </mxCell>
        <mxCell id="8nnCczleQrRYHcVaDCCx-121" style="edgeStyle=none;rounded=0;orthogonalLoop=1;jettySize=auto;html=1;exitX=1;exitY=0.5;exitDx=0;exitDy=0;entryX=0.25;entryY=0;entryDx=0;entryDy=0;endArrow=none;endFill=0;labelBackgroundColor=#283618;strokeColor=#DDA15E;fontColor=#FEFAE0;" edge="1" parent="1" source="8nnCczleQrRYHcVaDCCx-119" target="8nnCczleQrRYHcVaDCCx-3">
          <mxGeometry relative="1" as="geometry" />
        </mxCell>
        <mxCell id="8nnCczleQrRYHcVaDCCx-119" value="hasukunimi" style="ellipse;whiteSpace=wrap;html=1;fillColor=#BC6C25;strokeColor=#DDA15E;fontColor=#FEFAE0;" vertex="1" parent="1">
          <mxGeometry x="-543" y="830" width="90" height="30" as="geometry" />
        </mxCell>
        <mxCell id="8nnCczleQrRYHcVaDCCx-123" value="tmaksutapa" style="ellipse;whiteSpace=wrap;html=1;rounded=0;fillColor=#BC6C25;strokeColor=#DDA15E;fontColor=#FEFAE0;" vertex="1" parent="1">
          <mxGeometry x="-70" y="440" width="90" height="40" as="geometry" />
        </mxCell>
        <mxCell id="8nnCczleQrRYHcVaDCCx-125" value="ttoimpvm" style="ellipse;whiteSpace=wrap;html=1;rounded=0;fillColor=#BC6C25;strokeColor=#DDA15E;fontColor=#FEFAE0;" vertex="1" parent="1">
          <mxGeometry x="-100" y="480" width="90" height="40" as="geometry" />
        </mxCell>
        <mxCell id="8nnCczleQrRYHcVaDCCx-127" value="&lt;u&gt;katun&lt;/u&gt;" style="ellipse;whiteSpace=wrap;html=1;rounded=0;fillColor=#BC6C25;strokeColor=#DDA15E;fontColor=#FEFAE0;" vertex="1" parent="1">
          <mxGeometry x="530" y="130" width="90" height="30" as="geometry" />
        </mxCell>
        <mxCell id="8nnCczleQrRYHcVaDCCx-129" value="kanimi" style="ellipse;whiteSpace=wrap;html=1;rounded=0;fillColor=#BC6C25;strokeColor=#DDA15E;fontColor=#FEFAE0;" vertex="1" parent="1">
          <mxGeometry x="550" y="160" width="90" height="30" as="geometry" />
        </mxCell>
        <mxCell id="8nnCczleQrRYHcVaDCCx-131" style="rounded=0;orthogonalLoop=1;jettySize=auto;html=1;exitX=1;exitY=0.5;exitDx=0;exitDy=0;entryX=0;entryY=0.5;entryDx=0;entryDy=0;endArrow=halfCircle;endFill=0;labelBackgroundColor=#283618;strokeColor=#DDA15E;fontColor=#FEFAE0;shape=link;" edge="1" parent="1" source="8nnCczleQrRYHcVaDCCx-9" target="8nnCczleQrRYHcVaDCCx-12">
          <mxGeometry relative="1" as="geometry">
            <mxPoint x="320" y="482.5" as="sourcePoint" />
            <mxPoint x="382.32233047033606" y="395.17766952966326" as="targetPoint" />
          </mxGeometry>
        </mxCell>
        <mxCell id="8nnCczleQrRYHcVaDCCx-132" value="1" style="text;html=1;align=center;verticalAlign=middle;resizable=0;points=[];autosize=1;strokeColor=none;fillColor=none;fontColor=#FEFAE0;" vertex="1" parent="1">
          <mxGeometry x="-190" y="620" width="20" height="20" as="geometry" />
        </mxCell>
        <mxCell id="8nnCczleQrRYHcVaDCCx-133" value="M" style="text;html=1;align=center;verticalAlign=middle;resizable=0;points=[];autosize=1;strokeColor=none;fillColor=none;fontColor=#FEFAE0;" vertex="1" parent="1">
          <mxGeometry x="-195" y="460" width="30" height="20" as="geometry" />
        </mxCell>
        <mxCell id="8nnCczleQrRYHcVaDCCx-134" value="1" style="text;html=1;align=center;verticalAlign=middle;resizable=0;points=[];autosize=1;strokeColor=none;fillColor=none;fontColor=#FEFAE0;" vertex="1" parent="1">
          <mxGeometry x="-200" y="360" width="20" height="20" as="geometry" />
        </mxCell>
        <mxCell id="8nnCczleQrRYHcVaDCCx-135" value="M" style="text;html=1;align=center;verticalAlign=middle;resizable=0;points=[];autosize=1;strokeColor=none;fillColor=none;fontColor=#FEFAE0;" vertex="1" parent="1">
          <mxGeometry x="-205" y="290" width="30" height="20" as="geometry" />
        </mxCell>
        <mxCell id="8nnCczleQrRYHcVaDCCx-136" value="1" style="text;html=1;align=center;verticalAlign=middle;resizable=0;points=[];autosize=1;strokeColor=none;fillColor=none;fontColor=#FEFAE0;" vertex="1" parent="1">
          <mxGeometry x="-110" y="840" width="20" height="20" as="geometry" />
        </mxCell>
        <mxCell id="8nnCczleQrRYHcVaDCCx-137" value="1" style="text;html=1;align=center;verticalAlign=middle;resizable=0;points=[];autosize=1;strokeColor=none;fillColor=none;fontColor=#FEFAE0;" vertex="1" parent="1">
          <mxGeometry x="-320" y="830" width="20" height="20" as="geometry" />
        </mxCell>
        <mxCell id="8nnCczleQrRYHcVaDCCx-138" value="1" style="text;html=1;align=center;verticalAlign=middle;resizable=0;points=[];autosize=1;strokeColor=none;fillColor=none;fontColor=#FEFAE0;" vertex="1" parent="1">
          <mxGeometry x="-190" y="710" width="20" height="20" as="geometry" />
        </mxCell>
        <mxCell id="8nnCczleQrRYHcVaDCCx-139" value="1" style="text;html=1;align=center;verticalAlign=middle;resizable=0;points=[];autosize=1;strokeColor=none;fillColor=none;fontColor=#FEFAE0;" vertex="1" parent="1">
          <mxGeometry x="-235" y="710" width="20" height="20" as="geometry" />
        </mxCell>
        <mxCell id="8nnCczleQrRYHcVaDCCx-140" value="1" style="text;html=1;align=center;verticalAlign=middle;resizable=0;points=[];autosize=1;strokeColor=none;fillColor=none;fontColor=#FEFAE0;" vertex="1" parent="1">
          <mxGeometry x="290" y="580" width="20" height="20" as="geometry" />
        </mxCell>
        <mxCell id="8nnCczleQrRYHcVaDCCx-141" value="M" style="text;html=1;align=center;verticalAlign=middle;resizable=0;points=[];autosize=1;strokeColor=none;fillColor=none;fontColor=#FEFAE0;" vertex="1" parent="1">
          <mxGeometry x="155" y="630" width="30" height="20" as="geometry" />
        </mxCell>
        <mxCell id="8nnCczleQrRYHcVaDCCx-142" value="M" style="text;html=1;align=center;verticalAlign=middle;resizable=0;points=[];autosize=1;strokeColor=none;fillColor=none;fontColor=#FEFAE0;" vertex="1" parent="1">
          <mxGeometry x="-145" y="220" width="30" height="20" as="geometry" />
        </mxCell>
        <mxCell id="8nnCczleQrRYHcVaDCCx-143" value="1" style="text;html=1;align=center;verticalAlign=middle;resizable=0;points=[];autosize=1;strokeColor=none;fillColor=none;fontColor=#FEFAE0;" vertex="1" parent="1">
          <mxGeometry x="310" y="170" width="20" height="20" as="geometry" />
        </mxCell>
        <mxCell id="8nnCczleQrRYHcVaDCCx-144" value="1" style="text;html=1;align=center;verticalAlign=middle;resizable=0;points=[];autosize=1;strokeColor=none;fillColor=none;fontColor=#FEFAE0;" vertex="1" parent="1">
          <mxGeometry x="410" y="200" width="20" height="20" as="geometry" />
        </mxCell>
        <mxCell id="8nnCczleQrRYHcVaDCCx-145" value="M" style="text;html=1;align=center;verticalAlign=middle;resizable=0;points=[];autosize=1;strokeColor=none;fillColor=none;fontColor=#FEFAE0;" vertex="1" parent="1">
          <mxGeometry x="430" y="454.94" width="30" height="20" as="geometry" />
        </mxCell>
        <mxCell id="8nnCczleQrRYHcVaDCCx-146" value="M" style="text;html=1;align=center;verticalAlign=middle;resizable=0;points=[];autosize=1;strokeColor=none;fillColor=none;fontColor=#FEFAE0;" vertex="1" parent="1">
          <mxGeometry x="550" y="380" width="30" height="20" as="geometry" />
        </mxCell>
        <mxCell id="8nnCczleQrRYHcVaDCCx-147" value="M" style="text;html=1;align=center;verticalAlign=middle;resizable=0;points=[];autosize=1;strokeColor=none;fillColor=none;fontColor=#FEFAE0;" vertex="1" parent="1">
          <mxGeometry x="305" y="510" width="30" height="20" as="geometry" />
        </mxCell>
      </root>
    </mxGraphModel>
  </diagram>
</mxfile>
